<svg data-v-0dd9719b="" version="1.0" xmlns="http://www.w3.org/2000/svg" xmlns:xlink="http://www.w3.org/1999/xlink" width="100%" height="100%" viewBox="0 0 340.000000 250.000000" preserveAspectRatio="xMidYMid meet" color-interpolation-filters="sRGB" style="margin: auto;"> <rect data-v-0dd9719b="" x="0" y="0" width="100%" height="100%" fill="#ffffff" fill-opacity="1" class="background"></rect> <rect data-v-0dd9719b="" x="0" y="0" width="100%" height="100%" fill="url(#watermark)" fill-opacity="1" class="watermarklayer"></rect> <g data-v-0dd9719b="" fill="#000000" class="endsvg" transform="translate(48.404998779296875,104.03499984741211)"><g class="tp-name"><g><rect data-gra="graph-name-bg" stroke-width="2" class="i-icon-bg" x="0" y="0" width="243.19000244140625" height="41.93000030517578" fill-opacity="0"></rect> <!----> <!----> </g> <g transform="translate(0,0)"><g data-gra="path-name-bg" mask="url(#27aee1fd-159f-4404-88d6-1b83213bb3df)"><g><rect data-gra="graph-name-bg" stroke-width="2" class="i-icon-bg" x="0" y="0" width="74.52999877929688" height="41.93000030517578"></rect> <!----> <!----> </g> <g transform="translate(5,7)"><g data-gra="path-name" fill="#000000"><g transform="scale(1)"><path d="M24.22-27.42Q25.34-27.42 25.99-26.75Q26.65-26.07 26.65-24.95L26.65-24.95L26.65-2.28Q26.65-1.16 25.97-0.46Q25.30 0.23 24.22 0.23L24.22 0.23Q23.10 0.23 22.44-0.46Q21.78-1.16 21.78-2.28L21.78-2.28L21.78-11.82L7.84-11.82L7.84-2.28Q7.84-1.16 7.16-0.46Q6.49 0.23 5.37 0.23L5.37 0.23Q4.29 0.23 3.61-0.46Q2.94-1.16 2.94-2.28L2.94-2.28L2.94-24.95Q2.94-26.07 3.59-26.75Q4.25-27.42 5.37-27.42L5.37-27.42Q6.49-27.42 7.16-26.75Q7.84-26.07 7.84-24.95L7.84-24.95L7.84-15.84L21.78-15.84L21.78-24.95Q21.78-26.07 22.44-26.75Q23.10-27.42 24.22-27.42L24.22-27.42ZM32.02 0.23Q29.04 0.35 29.04-1.82L29.04-1.82Q29.04-2.74 29.53-3.23Q30.01-3.71 31.05-3.79L31.05-3.79L32.29-3.86Q33.87-3.94 34.68-4.87Q35.49-5.79 35.49-7.69L35.49-7.69L35.49-24.95Q35.49-26.07 36.17-26.75Q36.85-27.42 37.97-27.42L37.97-27.42Q39.13-27.42 39.80-26.75Q40.48-26.07 40.48-24.95L40.48-24.95L40.48-7.69Q40.48-0.39 33.25 0.15L33.25 0.15L32.02 0.23ZM48.82 0.23Q47.70 0.23 47.02-0.44Q46.35-1.12 46.35-2.28L46.35-2.28L46.35-24.87Q46.35-25.99 46.98-26.61Q47.62-27.23 48.74-27.23L48.74-27.23L58.24-27.23Q62.61-27.23 65.04-25.05Q67.47-22.86 67.47-18.93L67.47-18.93Q67.47-14.99 65.04-12.78Q62.61-10.58 58.24-10.58L58.24-10.58L51.33-10.58L51.33-2.28Q51.33-1.12 50.65-0.44Q49.98 0.23 48.82 0.23L48.82 0.23ZM57.63-14.41Q62.76-14.41 62.76-18.89L62.76-18.89Q62.76-23.37 57.63-23.37L57.63-23.37L51.33-23.37L51.33-14.41L57.63-14.41Z" transform="translate(-2.9353484466834603, 27.576826196473558)"></path></g></g></g></g> <g data-gra="path-name-1-bg" transform="translate(74.52999877929688,0)"><g><rect data-gra="graph-name-bg" stroke-width="2" class="i-icon-bg" x="0" y="0" width="168.66000366210938" height="41.93000030517578" fill-opacity="0"></rect> <!----> <!----> </g> <g transform="translate(5,7)"><rect data-gra="graph-name-bg" x="0" y="-7" width="158.66000366210938" height="2" fill="#000000"></rect> <rect data-gra="graph-name-bg" x="0" y="32.93000030517578" width="158.66000366210938" height="2" fill="#000000"></rect> <g data-gra="path-name-1" fill="#000000"><g transform="scale(1)"><path d="M15.10 0.35Q11.16 0.35 8.21-1.35Q5.25-3.05 3.67-6.22Q2.09-9.39 2.09-13.63L2.09-13.63Q2.09-17.88 3.67-21.03Q5.25-24.18 8.21-25.88Q11.16-27.58 15.10-27.58L15.10-27.58Q17.65-27.58 19.89-26.82Q22.13-26.07 23.87-24.64L23.87-24.64Q24.37-24.26 24.56-23.83Q24.76-23.41 24.76-22.79L24.76-22.79Q24.76-21.94 24.29-21.36Q23.83-20.78 23.17-20.78L23.17-20.78Q22.40-20.78 21.59-21.32L21.59-21.32Q19.93-22.56 18.50-23.04Q17.07-23.52 15.33-23.52L15.33-23.52Q11.32-23.52 9.25-21.01Q7.18-18.50 7.18-13.63L7.18-13.63Q7.18-8.73 9.25-6.22Q11.32-3.71 15.33-3.71L15.33-3.71Q16.99-3.71 18.40-4.21Q19.81-4.71 21.59-5.91L21.59-5.91Q21.98-6.14 22.36-6.30Q22.75-6.45 23.17-6.45L23.17-6.45Q23.83-6.45 24.29-5.87Q24.76-5.29 24.76-4.44L24.76-4.44Q24.76-3.86 24.56-3.42Q24.37-2.97 23.87-2.59L23.87-2.59Q22.13-1.16 19.89-0.41Q17.65 0.35 15.10 0.35L15.10 0.35ZM53.30-2.97Q53.53-2.47 53.53-1.97L53.53-1.97Q53.53-1.08 52.82-0.46Q52.10 0.15 51.18 0.15L51.18 0.15Q50.56 0.15 50.02-0.17Q49.48-0.50 49.17-1.20L49.17-1.20L46.85-6.37L33.25-6.37L30.94-1.20Q30.63-0.50 30.09-0.17Q29.55 0.15 28.89 0.15L28.89 0.15Q28.00 0.15 27.27-0.46Q26.53-1.08 26.53-1.97L26.53-1.97Q26.53-2.47 26.77-2.97L26.77-2.97L37.43-25.88Q37.77-26.65 38.49-27.06Q39.20-27.46 40.01-27.46L40.01-27.46Q40.82-27.46 41.54-27.06Q42.25-26.65 42.60-25.88L42.60-25.88L53.30-2.97ZM40.05-21.71L34.95-10.24L45.15-10.24L40.05-21.71ZM59.75 0.23Q58.63 0.23 57.95-0.44Q57.28-1.12 57.28-2.28L57.28-2.28L57.28-24.87Q57.28-25.99 57.92-26.61Q58.55-27.23 59.67-27.23L59.67-27.23L69.17-27.23Q73.54-27.23 75.97-25.05Q78.40-22.86 78.40-18.93L78.40-18.93Q78.40-14.99 75.97-12.78Q73.54-10.58 69.17-10.58L69.17-10.58L62.26-10.58L62.26-2.28Q62.26-1.12 61.58-0.44Q60.91 0.23 59.75 0.23L59.75 0.23ZM68.56-14.41Q73.69-14.41 73.69-18.89L73.69-18.89Q73.69-23.37 68.56-23.37L68.56-23.37L62.26-23.37L62.26-14.41L68.56-14.41ZM85.24 0.23Q84.12 0.23 83.45-0.46Q82.77-1.16 82.77-2.28L82.77-2.28L82.77-24.95Q82.77-26.07 83.45-26.75Q84.12-27.42 85.24-27.42L85.24-27.42Q86.40-27.42 87.08-26.75Q87.75-26.07 87.75-24.95L87.75-24.95L87.75-2.28Q87.75-1.16 87.08-0.46Q86.40 0.23 85.24 0.23L85.24 0.23ZM102.54 0.19Q101.39 0.19 100.71-0.48Q100.03-1.16 100.03-2.28L100.03-2.28L100.03-23.14L93.00-23.14Q90.69-23.14 90.69-25.18L90.69-25.18Q90.69-27.23 93.00-27.23L93.00-27.23L112.05-27.23Q114.36-27.23 114.36-25.18L114.36-25.18Q114.36-23.14 112.05-23.14L112.05-23.14L105.02-23.14L105.02-2.28Q105.02-1.16 104.34-0.48Q103.66 0.19 102.54 0.19L102.54 0.19ZM138.62-2.97Q138.85-2.47 138.85-1.97L138.85-1.97Q138.85-1.08 138.14-0.46Q137.42 0.15 136.49 0.15L136.49 0.15Q135.88 0.15 135.34-0.17Q134.79-0.50 134.49-1.20L134.49-1.20L132.17-6.37L118.57-6.37L116.26-1.20Q115.95-0.50 115.41-0.17Q114.86 0.15 114.21 0.15L114.21 0.15Q113.32 0.15 112.59-0.46Q111.85-1.08 111.85-1.97L111.85-1.97Q111.85-2.47 112.08-2.97L112.08-2.97L122.74-25.88Q123.09-26.65 123.81-27.06Q124.52-27.46 125.33-27.46L125.33-27.46Q126.14-27.46 126.86-27.06Q127.57-26.65 127.92-25.88L127.92-25.88L138.62-2.97ZM125.37-21.71L120.27-10.24L130.47-10.24L125.37-21.71ZM144.95 0Q143.83 0 143.21-0.62Q142.60-1.24 142.60-2.32L142.60-2.32L142.60-24.95Q142.60-26.07 143.27-26.75Q143.95-27.42 145.07-27.42L145.07-27.42Q146.23-27.42 146.90-26.75Q147.58-26.07 147.58-24.95L147.58-24.95L147.58-4.09L158.43-4.09Q160.75-4.09 160.75-2.05L160.75-2.05Q160.75 0 158.43 0L158.43 0L144.95 0Z" transform="translate(-2.085642317380353, 27.576826196473558)"></path></g></g></g></g></g></g> <!----> <!----> <!----> <!----> <!----> <!----></g><mask id="27aee1fd-159f-4404-88d6-1b83213bb3df"><g fill="white"><rect data-gra="graph-name-bg" stroke-width="2" class="i-icon-bg" x="0" y="0" width="74.52999877929688" height="41.93000030517578"></rect>   </g> <g transform="translate(5,7)" fill="black"><g data-gra="path-name"><g transform="scale(1)"><path d="M24.22-27.42Q25.34-27.42 25.99-26.75Q26.65-26.07 26.65-24.95L26.65-24.95L26.65-2.28Q26.65-1.16 25.97-0.46Q25.30 0.23 24.22 0.23L24.22 0.23Q23.10 0.23 22.44-0.46Q21.78-1.16 21.78-2.28L21.78-2.28L21.78-11.82L7.84-11.82L7.84-2.28Q7.84-1.16 7.16-0.46Q6.49 0.23 5.37 0.23L5.37 0.23Q4.29 0.23 3.61-0.46Q2.94-1.16 2.94-2.28L2.94-2.28L2.94-24.95Q2.94-26.07 3.59-26.75Q4.25-27.42 5.37-27.42L5.37-27.42Q6.49-27.42 7.16-26.75Q7.84-26.07 7.84-24.95L7.84-24.95L7.84-15.84L21.78-15.84L21.78-24.95Q21.78-26.07 22.44-26.75Q23.10-27.42 24.22-27.42L24.22-27.42ZM32.02 0.23Q29.04 0.35 29.04-1.82L29.04-1.82Q29.04-2.74 29.53-3.23Q30.01-3.71 31.05-3.79L31.05-3.79L32.29-3.86Q33.87-3.94 34.68-4.87Q35.49-5.79 35.49-7.69L35.49-7.69L35.49-24.95Q35.49-26.07 36.17-26.75Q36.85-27.42 37.97-27.42L37.97-27.42Q39.13-27.42 39.80-26.75Q40.48-26.07 40.48-24.95L40.48-24.95L40.48-7.69Q40.48-0.39 33.25 0.15L33.25 0.15L32.02 0.23ZM48.82 0.23Q47.70 0.23 47.02-0.44Q46.35-1.12 46.35-2.28L46.35-2.28L46.35-24.87Q46.35-25.99 46.98-26.61Q47.62-27.23 48.74-27.23L48.74-27.23L58.24-27.23Q62.61-27.23 65.04-25.05Q67.47-22.86 67.47-18.93L67.47-18.93Q67.47-14.99 65.04-12.78Q62.61-10.58 58.24-10.58L58.24-10.58L51.33-10.58L51.33-2.28Q51.33-1.12 50.65-0.44Q49.98 0.23 48.82 0.23L48.82 0.23ZM57.63-14.41Q62.76-14.41 62.76-18.89L62.76-18.89Q62.76-23.37 57.63-23.37L57.63-23.37L51.33-23.37L51.33-14.41L57.63-14.41Z" transform="translate(-2.9353484466834603, 27.576826196473558)"></path></g></g></g></mask><defs v-gra="od"></defs></svg>